# xmcd CD database file
#
# Track frame offsets:
#	183
#	23598
#	40235
#	60168
#	77758
#	101428
#	129378
#	149655
#	175823
#	193348
#	223260
#
# Disc length: 3295 seconds
#
# Revision: 0
# Processed by: cddbd v1.5.2PL0 Copyright (c) Steve Scherf et al.
# Submitted via: CDex 1.79
#
DISCID=980cdd0b
DTITLE=Bunny Ray - Bunny Ray
DYEAR=1993
DGENRE=Blues
TTITLE0=everything i do gonh be funky from now on
TTITLE1=Dirty color
TTITLE2=Blues about you
TTITLE3=Terrible
TTITLE4=Here xe go
TTITLE5=Side by side
TTITLE6=Won't you take the time
TTITLE7=Give it to me
TTITLE8=Allright
TTITLE9=T 99 Blues
TTITLE10=Good vibes
EXTD=YEAR: 1993
EXTT0=
EXTT1=
EXTT2=
EXTT3=
EXTT4=
EXTT5=
EXTT6=
EXTT7=
EXTT8=
EXTT9=
EXTT10=
PLAYORDER=
